<svg xmlns="http://www.w3.org/2000/svg" width="137" height="137" viewBox="0 0 137 137" fill="none">
     <path fill-rule="evenodd" clip-rule="evenodd"
      d="M93.301 24.9998C117.216 38.8072 125.41 69.3865 111.603 93.301C97.7956 117.216 67.2161 125.41 43.301 111.602C19.3865 97.7953 11.1931 67.2155 25.0002 43.301C38.8072 19.3865 69.3865 11.1928 93.301 24.9998Z"
      stroke="#F7931F" stroke-width="1.5" stroke-linecap="round" stroke-linejoin="round" />
     <path fill-rule="evenodd" clip-rule="evenodd"
      d="M46.2789 55.5869L67.6329 18.6006L110.341 92.5734L24.9248 92.5732L46.2789 55.5869Z" stroke="#F7931F"
      stroke-width="1.5" stroke-linecap="round" stroke-linejoin="round" />
     <path fill-rule="evenodd" clip-rule="evenodd"
      d="M90.3233 81.0158L68.9692 118.002L26.2608 44.0293L111.677 44.0295L90.3233 81.0158Z" fill="#0303BE"
      stroke="#F7931F" stroke-width="1.5" stroke-linecap="round" stroke-linejoin="round" />
     <path fill-rule="evenodd" clip-rule="evenodd" d="M52.4828 44.8414L64.8904 66.332L40.0752 66.332L52.4828 44.8414Z"
      stroke="#F7931F" stroke-width="1.5" stroke-linecap="round" stroke-linejoin="round" />
     <path fill-rule="evenodd" clip-rule="evenodd" d="M84.1194 91.7609L71.7119 70.2703L96.527 70.2702L84.1194 91.7609Z"
      stroke="#F7931F" stroke-width="1.5" stroke-linecap="round" stroke-linejoin="round" />
    </svg>