<svg width="901" height="251" viewBox="0 0 901 251" fill="none" xmlns="http://www.w3.org/2000/svg">
    <path
     d="M861.104 245.885C880.652 244.513 895.742 228.394 895.742 208.846V207.475H900.2V250H765.765V245.885H773.31V5.13509H765.765V0.676758H798.002V245.885H861.104Z"
     fill="#F7931F" />
    <path
     d="M713.371 168.379H650.269L633.121 245.885H650.269V250H610.487V245.885H611.859C621.461 245.885 629.692 239.369 632.093 230.452L673.932 41.4876L661.586 0.676758H686.621L762.07 245.885H770.301V250H738.407L713.371 168.379ZM651.298 163.92H712L676.676 49.7184L651.298 163.92Z"
     fill="#F7931F" />
    <path
     d="M569.221 132.369L606.602 245.885H614.833V250H574.708V245.885H581.567L542.814 128.597C522.237 129.625 505.432 146.773 505.432 168.036L505.089 245.885H512.634V250H472.852V245.885H480.397V5.13509H472.852V0.676758H544.528C559.961 0.676758 574.708 6.50688 586.025 16.7953C599.743 29.1415 607.288 46.2889 607.288 64.4652C607.288 82.6414 599.743 100.132 586.025 112.135C577.451 120.023 566.477 125.51 554.817 127.568L569.221 132.369ZM505.089 149.516C511.948 134.427 527.381 124.138 544.528 124.138C553.445 124.138 562.362 120.709 569.563 114.193C577.451 106.991 582.253 96.7023 582.595 85.728V43.5453C582.253 32.571 577.451 22.2825 569.563 14.7376C562.704 8.56457 553.788 5.13509 544.528 5.13509H505.089V149.516Z"
     fill="#F7931F" />
    <path
     d="M364.671 5.13509H357.126V207.475C357.469 218.106 361.927 228.737 370.158 235.939C377.017 242.112 385.933 245.542 395.193 245.885C409.254 245.542 422.972 240.055 433.603 230.452C446.292 219.135 453.494 203.016 453.494 186.212V41.8306C453.494 22.2825 438.062 6.16394 418.857 5.13509L417.142 4.79214V0.676758H465.497V5.13509H457.953V186.212C457.953 204.388 450.065 221.878 436.69 233.882C425.373 244.17 410.626 250 395.193 250C379.76 250 365.014 244.17 353.353 233.882C339.978 221.878 332.434 204.388 332.434 186.212V5.13509H324.889V0.676758H364.671V5.13509Z"
     fill="#F7931F" />
    <path
     d="M278.628 245.885C298.176 244.513 313.266 228.394 313.266 208.846V207.475H317.724V250H183.288V245.885H190.833V5.13509H183.288V0.676758H215.525V245.885H278.628Z"
     fill="#F7931F" />
    <path
     d="M92.7473 0.676758H93.0902C105.093 0.676758 116.411 3.42035 127.385 8.56457C138.016 13.3658 146.933 20.2248 154.821 29.1415C168.196 44.5742 175.741 64.1222 175.741 84.6991C175.741 104.933 168.196 124.824 154.821 140.257C146.933 148.83 138.016 155.689 127.385 160.834C116.411 165.635 104.75 168.379 92.7473 168.379C92.4043 168.379 92.0614 168.721 91.7184 168.721C74.9139 168.721 58.7954 161.862 46.7922 149.859C40.6191 143.686 35.8178 136.484 32.7313 128.597V245.885H40.2761V250.343H0.494141V245.885H8.039V5.13509H0.494141V0.676758H1.86593C11.1255 0.676758 92.4043 0.676758 92.7473 0.676758ZM91.7184 164.263C92.0614 164.263 92.7473 164.263 92.7473 164.263C108.18 163.92 122.584 157.747 133.558 146.773C144.532 135.798 150.706 121.395 151.048 105.962V63.0934C150.706 47.6607 144.532 33.2569 133.558 22.2825C122.584 11.3082 108.18 5.13509 92.7473 5.13509C92.4043 5.13509 92.0614 5.13509 91.7184 5.13509H32.7313V105.619C33.0742 121.395 39.2473 136.141 50.2216 147.116C61.5389 158.09 76.2857 164.263 91.7184 164.263Z"
     fill="#F7931F" />
   </svg>