<svg width="1205" height="390" viewBox="0 0 1205 390" fill="none" xmlns="http://www.w3.org/2000/svg">
    <mask id="path-1-outside-1_731_79" maskUnits="userSpaceOnUse" x="0.0263672" y="0.0581055" width="1205" height="390"
     fill="black">
     <rect fill="white" x="0.0263672" y="0.0581055" width="1205" height="390" />
     <path
      d="M210.01 186.744V135.335H213.079V136.614C213.079 138.66 213.335 140.451 213.591 142.241C214.87 152.983 219.473 162.446 226.891 170.119C227.146 170.375 227.402 170.375 227.658 170.631L227.914 170.887C228.169 171.142 228.169 171.398 228.425 171.398L228.681 171.654C228.937 171.91 229.193 172.166 229.448 172.166V172.421C229.704 172.677 229.96 172.677 230.216 172.933L230.471 173.189C238.4 179.838 248.375 183.419 258.861 183.931H259.629C259.884 183.931 260.14 183.931 260.396 183.931C260.396 183.931 260.652 183.931 260.908 183.931H261.163C261.419 183.931 261.419 183.931 261.675 183.931C271.394 183.419 280.601 179.583 287.507 172.677C294.669 165.26 298.761 155.796 298.761 145.566C298.761 135.079 294.669 125.616 287.507 118.199C286.996 117.687 286.484 117.176 285.973 116.92L282.903 114.362C270.371 103.876 220.752 62.1862 220.241 61.6746C212.312 55.0247 209.243 44.2826 212.824 34.5634V34.0519C215.381 27.1462 219.473 21.0078 224.589 15.8925V15.6368C229.704 10.7772 235.331 6.94072 241.725 4.38306C247.608 2.08117 254.002 1.05811 260.396 1.05811C260.652 1.05811 260.908 1.05811 261.163 1.05811C272.161 1.31388 282.392 4.63883 290.832 11.2887C292.622 12.5676 294.669 13.0791 296.971 13.0791C302.597 13.0791 307.457 8.47533 307.457 2.59271V1.31388H310.782V52.7228H307.457V51.444C307.457 38.9115 302.597 26.8905 293.646 18.1944C293.39 17.9387 293.134 17.6829 292.878 17.4271L292.622 17.1714C292.367 16.9156 292.367 16.9156 292.111 16.6598C292.111 16.6598 291.855 16.4041 291.599 16.1483L291.344 15.8925C291.088 15.8925 291.088 15.6368 290.832 15.6368C290.832 15.381 290.576 15.381 290.576 15.381C290.321 15.1252 289.042 14.1022 289.042 14.1022C280.857 7.96379 271.394 4.38306 261.163 4.38306C260.908 4.38306 260.652 4.38306 260.396 4.38306C254.258 4.38306 248.631 5.40613 243.004 7.45226C236.866 10.0099 231.494 13.5906 226.891 18.1944C224.077 21.0078 221.775 27.6578 223.054 34.8192C224.077 39.9345 228.169 44.2825 231.494 46.8402L295.947 101.063C297.226 102.341 309.503 113.851 310.526 134.056C311.293 148.379 306.178 162.191 295.947 172.421C286.74 181.373 274.719 186.744 261.675 187C261.675 187 261.419 187 261.163 187H260.908C260.652 187 260.396 187 260.396 187C260.14 187 259.629 187 259.629 187H258.861C248.375 186.744 238.144 183.163 229.96 177.025L229.704 176.769C227.914 175.49 225.868 174.979 223.821 174.979C217.939 174.979 213.079 179.583 213.079 185.465V186.744H210.01ZM342.968 159.633C334.528 150.937 327.878 140.962 323.274 129.964C318.415 118.71 316.113 106.434 316.113 94.1569C316.113 81.6244 318.415 69.3476 323.274 58.0939C327.878 47.096 334.528 37.1211 342.968 28.6808C351.409 19.9848 361.128 13.3349 372.126 8.47533C383.635 3.61578 395.656 1.05811 407.933 1.05811H409.979C422.512 1.05811 434.533 3.61578 446.042 8.47533C457.04 13.3349 466.759 19.9848 475.199 28.6808C483.64 37.1211 490.29 47.096 494.893 58.0939C499.753 69.3476 502.055 81.6244 502.055 94.1569C502.055 106.434 499.753 118.71 494.893 129.964C490.29 140.962 483.64 150.937 475.199 159.633C466.759 168.073 457.04 174.723 446.042 179.583C434.533 184.442 422.512 187 409.979 187H408.189C395.656 187 383.635 184.442 372.126 179.583C361.128 174.723 351.409 168.073 342.968 159.633ZM409.979 4.38306H408.189C388.495 4.63883 370.08 14.1022 356.012 30.727C342.201 47.8633 334.528 70.1149 334.528 94.1569C334.528 117.943 342.201 140.451 356.012 157.331C370.08 174.212 388.495 183.419 408.189 183.931H409.979C429.673 183.419 448.088 174.212 461.9 157.331C475.967 140.451 483.64 117.943 483.64 94.1569C483.64 70.1149 475.967 47.8633 461.9 30.727C448.088 14.1022 429.673 4.63883 409.979 4.38306ZM507.638 4.38306V1.05811H530.912L628.871 179.071V31.75C628.871 17.1714 617.617 5.15037 603.038 4.38306L602.015 4.1273V1.05811H637.823V4.38306H632.196V187H614.548L516.589 8.98685V156.308C516.589 170.887 527.843 182.908 542.422 183.931H543.445V187H507.638V183.931H513.265V4.38306H507.638ZM647.3 183.931H652.927V4.38306H647.3V1.05811H676.969V4.38306H671.342V183.931H676.969V187H647.3V183.931ZM686.374 1.05811H710.672C723.204 1.05811 735.225 3.61578 746.735 8.47533C757.733 13.3349 767.452 19.9848 775.892 28.6808C784.332 37.1211 790.982 47.096 795.586 58.0939C800.446 69.3476 802.748 81.6244 802.748 94.1569C802.748 106.434 800.446 118.71 795.586 129.964C790.982 140.962 784.332 150.937 775.892 159.633C767.452 168.073 757.733 174.723 746.735 179.583C735.225 184.442 723.204 187 710.672 187H710.416L709.137 187.256H686.374V183.931H692.001V4.38306H686.374V1.05811ZM710.416 4.38306V183.931H710.672C730.366 183.419 748.781 174.212 762.592 157.331C776.659 140.451 784.332 117.943 784.332 94.1569C784.332 70.1149 776.659 47.8633 762.592 30.727C748.781 14.1022 730.366 4.63883 710.672 4.38306H710.416ZM835.318 159.633C826.877 150.937 820.228 140.962 815.624 129.964C810.764 118.71 808.462 106.434 808.462 94.1569C808.462 81.6244 810.764 69.3476 815.624 58.0939C820.228 47.096 826.877 37.1211 835.318 28.6808C843.758 19.9848 853.477 13.3349 864.475 8.47533C875.985 3.61578 888.005 1.05811 900.282 1.05811H902.328C914.861 1.05811 926.882 3.61578 938.391 8.47533C949.389 13.3349 959.108 19.9848 967.549 28.6808C975.989 37.1211 982.639 47.096 987.243 58.0939C992.102 69.3476 994.404 81.6244 994.404 94.1569C994.404 106.434 992.102 118.71 987.243 129.964C982.639 140.962 975.989 150.937 967.549 159.633C959.108 168.073 949.389 174.723 938.391 179.583C926.882 184.442 914.861 187 902.328 187H900.538C888.005 187 875.985 184.442 864.475 179.583C853.477 174.723 843.758 168.073 835.318 159.633ZM902.328 4.38306H900.538C880.844 4.63883 862.429 14.1022 848.362 30.727C834.55 47.8633 826.877 70.1149 826.877 94.1569C826.877 117.943 834.55 140.451 848.362 157.331C862.429 174.212 880.844 183.419 900.538 183.931H902.328C922.022 183.419 940.437 174.212 954.249 157.331C968.316 140.451 975.989 117.943 975.989 94.1569C975.989 70.1149 968.316 47.8633 954.249 30.727C940.437 14.1022 922.022 4.63883 902.328 4.38306ZM6.65322 385.931V206.383H1.02637V203.058H24.5568L72.1293 357.285L119.702 203.058H143.488V206.383H137.861V385.931H143.488V389H113.819V385.931H119.446V215.591L73.9197 362.656L82.1042 389H63.4333L9.97817 215.591V358.308C9.97817 372.887 21.2319 384.908 35.8105 385.931H36.8336V389H1.02637V385.931H6.65322ZM175.696 361.633C167.256 352.937 160.606 342.962 156.003 331.964C151.143 320.71 148.841 308.434 148.841 296.157C148.841 283.624 151.143 271.348 156.003 260.094C160.606 249.096 167.256 239.121 175.696 230.681C184.137 221.985 193.856 215.335 204.854 210.475C216.363 205.616 228.384 203.058 240.661 203.058H242.707C255.24 203.058 267.261 205.616 278.77 210.475C289.768 215.335 299.487 221.985 307.927 230.681C316.368 239.121 323.018 249.096 327.621 260.094C332.481 271.348 334.783 283.624 334.783 296.157C334.783 308.434 332.481 320.71 327.621 331.964C323.018 342.962 316.368 352.937 307.927 361.633C299.487 370.073 289.768 376.723 278.77 381.583C267.261 386.442 255.24 389 242.707 389H240.917C228.384 389 216.363 386.442 204.854 381.583C193.856 376.723 184.137 370.073 175.696 361.633ZM242.707 206.383H240.917C221.223 206.639 202.808 216.102 188.741 232.727C174.929 249.863 167.256 272.115 167.256 296.157C167.256 319.943 174.929 342.451 188.741 359.331C202.808 376.212 221.223 385.419 240.917 385.931H242.707C262.401 385.419 280.816 376.212 294.628 359.331C308.695 342.451 316.368 319.943 316.368 296.157C316.368 272.115 308.695 249.863 294.628 232.727C280.816 216.102 262.401 206.639 242.707 206.383ZM340.366 206.383V203.058H363.64L461.599 381.071V233.75C461.599 219.171 450.345 207.15 435.766 206.383L434.743 206.127V203.058H470.551V206.383H464.924V389H447.276L349.318 210.987V358.308C349.318 372.887 360.571 384.908 375.15 385.931H376.173V389H340.366V385.931H345.993V206.383H340.366ZM503.047 361.633C494.607 352.937 487.957 342.962 483.353 331.964C478.493 320.71 476.191 308.434 476.191 296.157C476.191 283.624 478.493 271.348 483.353 260.094C487.957 249.096 494.607 239.121 503.047 230.681C511.487 221.985 521.206 215.335 532.204 210.475C543.714 205.616 555.735 203.058 568.011 203.058H570.057C582.59 203.058 594.611 205.616 606.12 210.475C617.118 215.335 626.837 221.985 635.278 230.681C643.718 239.121 650.368 249.096 654.972 260.094C659.831 271.348 662.133 283.624 662.133 296.157C662.133 308.434 659.831 320.71 654.972 331.964C650.368 342.962 643.718 352.937 635.278 361.633C626.837 370.073 617.118 376.723 606.12 381.583C594.611 386.442 582.59 389 570.057 389H568.267C555.735 389 543.714 386.442 532.204 381.583C521.206 376.723 511.487 370.073 503.047 361.633ZM570.057 206.383H568.267C548.573 206.639 530.158 216.102 516.091 232.727C502.28 249.863 494.607 272.115 494.607 296.157C494.607 319.943 502.28 342.451 516.091 359.331C530.158 376.212 548.573 385.419 568.267 385.931H570.057C589.751 385.419 608.167 376.212 621.978 359.331C636.045 342.451 643.718 319.943 643.718 296.157C643.718 272.115 636.045 249.863 621.978 232.727C608.167 216.102 589.751 206.639 570.057 206.383ZM735.494 328.128H688.433L675.645 385.931H688.433V389H658.764V385.931H659.787C666.949 385.931 673.087 381.071 674.878 374.421L706.081 233.494L696.873 203.058H715.544L771.813 385.931H777.951V389H754.165L735.494 328.128ZM689.2 324.803H734.471L708.127 239.633L689.2 324.803ZM804.237 206.383H798.61V357.285C798.866 365.214 802.191 373.142 808.329 378.514C813.445 383.117 820.095 385.675 827 385.931C837.487 385.675 847.717 381.583 855.646 374.421C865.11 365.981 870.481 353.96 870.481 341.427V233.75C870.481 219.171 858.971 207.15 844.648 206.383L843.369 206.127V203.058H879.432V206.383H873.806V341.427C873.806 354.983 867.923 368.027 857.948 376.979C849.508 384.652 838.51 389 827 389C815.491 389 804.493 384.652 795.797 376.979C785.822 368.027 780.195 354.983 780.195 341.427V206.383H774.568V203.058H804.237V206.383ZM956.788 301.272L984.666 385.931H990.804V389H960.88V385.931H965.995L937.094 298.459C921.748 299.226 909.215 312.014 909.215 327.872L908.959 385.931H914.586V389H884.917V385.931H890.544V206.383H884.917V203.058H938.372C949.882 203.058 960.88 207.406 969.32 215.079C979.551 224.287 985.178 237.075 985.178 250.631C985.178 264.186 979.551 277.23 969.32 286.182C962.926 292.065 954.741 296.157 946.045 297.691L956.788 301.272ZM908.959 314.061C914.075 302.807 925.584 295.134 938.372 295.134C945.022 295.134 951.672 292.576 957.043 287.717C962.926 282.346 966.507 274.673 966.762 266.488V235.029C966.507 226.844 962.926 219.171 957.043 213.545C951.928 208.941 945.278 206.383 938.372 206.383H908.959V314.061ZM1064.29 328.128H1017.23L1004.44 385.931H1017.23V389H987.563V385.931H988.586C995.748 385.931 1001.89 381.071 1003.68 374.421L1034.88 233.494L1025.67 203.058H1044.34L1100.61 385.931H1106.75V389H1082.96L1064.29 328.128ZM1018 324.803H1063.27L1036.93 239.633L1018 324.803ZM1174.47 385.931C1189.05 384.908 1200.3 372.887 1200.3 358.308V357.285H1203.63V389H1103.37V385.931H1108.99V206.383H1103.37V203.058H1127.41V385.931H1174.47Z" />
    </mask>
    <path
     d="M210.01 186.744V135.335H213.079V136.614C213.079 138.66 213.335 140.451 213.591 142.241C214.87 152.983 219.473 162.446 226.891 170.119C227.146 170.375 227.402 170.375 227.658 170.631L227.914 170.887C228.169 171.142 228.169 171.398 228.425 171.398L228.681 171.654C228.937 171.91 229.193 172.166 229.448 172.166V172.421C229.704 172.677 229.96 172.677 230.216 172.933L230.471 173.189C238.4 179.838 248.375 183.419 258.861 183.931H259.629C259.884 183.931 260.14 183.931 260.396 183.931C260.396 183.931 260.652 183.931 260.908 183.931H261.163C261.419 183.931 261.419 183.931 261.675 183.931C271.394 183.419 280.601 179.583 287.507 172.677C294.669 165.26 298.761 155.796 298.761 145.566C298.761 135.079 294.669 125.616 287.507 118.199C286.996 117.687 286.484 117.176 285.973 116.92L282.903 114.362C270.371 103.876 220.752 62.1862 220.241 61.6746C212.312 55.0247 209.243 44.2826 212.824 34.5634V34.0519C215.381 27.1462 219.473 21.0078 224.589 15.8925V15.6368C229.704 10.7772 235.331 6.94072 241.725 4.38306C247.608 2.08117 254.002 1.05811 260.396 1.05811C260.652 1.05811 260.908 1.05811 261.163 1.05811C272.161 1.31388 282.392 4.63883 290.832 11.2887C292.622 12.5676 294.669 13.0791 296.971 13.0791C302.597 13.0791 307.457 8.47533 307.457 2.59271V1.31388H310.782V52.7228H307.457V51.444C307.457 38.9115 302.597 26.8905 293.646 18.1944C293.39 17.9387 293.134 17.6829 292.878 17.4271L292.622 17.1714C292.367 16.9156 292.367 16.9156 292.111 16.6598C292.111 16.6598 291.855 16.4041 291.599 16.1483L291.344 15.8925C291.088 15.8925 291.088 15.6368 290.832 15.6368C290.832 15.381 290.576 15.381 290.576 15.381C290.321 15.1252 289.042 14.1022 289.042 14.1022C280.857 7.96379 271.394 4.38306 261.163 4.38306C260.908 4.38306 260.652 4.38306 260.396 4.38306C254.258 4.38306 248.631 5.40613 243.004 7.45226C236.866 10.0099 231.494 13.5906 226.891 18.1944C224.077 21.0078 221.775 27.6578 223.054 34.8192C224.077 39.9345 228.169 44.2825 231.494 46.8402L295.947 101.063C297.226 102.341 309.503 113.851 310.526 134.056C311.293 148.379 306.178 162.191 295.947 172.421C286.74 181.373 274.719 186.744 261.675 187C261.675 187 261.419 187 261.163 187H260.908C260.652 187 260.396 187 260.396 187C260.14 187 259.629 187 259.629 187H258.861C248.375 186.744 238.144 183.163 229.96 177.025L229.704 176.769C227.914 175.49 225.868 174.979 223.821 174.979C217.939 174.979 213.079 179.583 213.079 185.465V186.744H210.01ZM342.968 159.633C334.528 150.937 327.878 140.962 323.274 129.964C318.415 118.71 316.113 106.434 316.113 94.1569C316.113 81.6244 318.415 69.3476 323.274 58.0939C327.878 47.096 334.528 37.1211 342.968 28.6808C351.409 19.9848 361.128 13.3349 372.126 8.47533C383.635 3.61578 395.656 1.05811 407.933 1.05811H409.979C422.512 1.05811 434.533 3.61578 446.042 8.47533C457.04 13.3349 466.759 19.9848 475.199 28.6808C483.64 37.1211 490.29 47.096 494.893 58.0939C499.753 69.3476 502.055 81.6244 502.055 94.1569C502.055 106.434 499.753 118.71 494.893 129.964C490.29 140.962 483.64 150.937 475.199 159.633C466.759 168.073 457.04 174.723 446.042 179.583C434.533 184.442 422.512 187 409.979 187H408.189C395.656 187 383.635 184.442 372.126 179.583C361.128 174.723 351.409 168.073 342.968 159.633ZM409.979 4.38306H408.189C388.495 4.63883 370.08 14.1022 356.012 30.727C342.201 47.8633 334.528 70.1149 334.528 94.1569C334.528 117.943 342.201 140.451 356.012 157.331C370.08 174.212 388.495 183.419 408.189 183.931H409.979C429.673 183.419 448.088 174.212 461.9 157.331C475.967 140.451 483.64 117.943 483.64 94.1569C483.64 70.1149 475.967 47.8633 461.9 30.727C448.088 14.1022 429.673 4.63883 409.979 4.38306ZM507.638 4.38306V1.05811H530.912L628.871 179.071V31.75C628.871 17.1714 617.617 5.15037 603.038 4.38306L602.015 4.1273V1.05811H637.823V4.38306H632.196V187H614.548L516.589 8.98685V156.308C516.589 170.887 527.843 182.908 542.422 183.931H543.445V187H507.638V183.931H513.265V4.38306H507.638ZM647.3 183.931H652.927V4.38306H647.3V1.05811H676.969V4.38306H671.342V183.931H676.969V187H647.3V183.931ZM686.374 1.05811H710.672C723.204 1.05811 735.225 3.61578 746.735 8.47533C757.733 13.3349 767.452 19.9848 775.892 28.6808C784.332 37.1211 790.982 47.096 795.586 58.0939C800.446 69.3476 802.748 81.6244 802.748 94.1569C802.748 106.434 800.446 118.71 795.586 129.964C790.982 140.962 784.332 150.937 775.892 159.633C767.452 168.073 757.733 174.723 746.735 179.583C735.225 184.442 723.204 187 710.672 187H710.416L709.137 187.256H686.374V183.931H692.001V4.38306H686.374V1.05811ZM710.416 4.38306V183.931H710.672C730.366 183.419 748.781 174.212 762.592 157.331C776.659 140.451 784.332 117.943 784.332 94.1569C784.332 70.1149 776.659 47.8633 762.592 30.727C748.781 14.1022 730.366 4.63883 710.672 4.38306H710.416ZM835.318 159.633C826.877 150.937 820.228 140.962 815.624 129.964C810.764 118.71 808.462 106.434 808.462 94.1569C808.462 81.6244 810.764 69.3476 815.624 58.0939C820.228 47.096 826.877 37.1211 835.318 28.6808C843.758 19.9848 853.477 13.3349 864.475 8.47533C875.985 3.61578 888.005 1.05811 900.282 1.05811H902.328C914.861 1.05811 926.882 3.61578 938.391 8.47533C949.389 13.3349 959.108 19.9848 967.549 28.6808C975.989 37.1211 982.639 47.096 987.243 58.0939C992.102 69.3476 994.404 81.6244 994.404 94.1569C994.404 106.434 992.102 118.71 987.243 129.964C982.639 140.962 975.989 150.937 967.549 159.633C959.108 168.073 949.389 174.723 938.391 179.583C926.882 184.442 914.861 187 902.328 187H900.538C888.005 187 875.985 184.442 864.475 179.583C853.477 174.723 843.758 168.073 835.318 159.633ZM902.328 4.38306H900.538C880.844 4.63883 862.429 14.1022 848.362 30.727C834.55 47.8633 826.877 70.1149 826.877 94.1569C826.877 117.943 834.55 140.451 848.362 157.331C862.429 174.212 880.844 183.419 900.538 183.931H902.328C922.022 183.419 940.437 174.212 954.249 157.331C968.316 140.451 975.989 117.943 975.989 94.1569C975.989 70.1149 968.316 47.8633 954.249 30.727C940.437 14.1022 922.022 4.63883 902.328 4.38306ZM6.65322 385.931V206.383H1.02637V203.058H24.5568L72.1293 357.285L119.702 203.058H143.488V206.383H137.861V385.931H143.488V389H113.819V385.931H119.446V215.591L73.9197 362.656L82.1042 389H63.4333L9.97817 215.591V358.308C9.97817 372.887 21.2319 384.908 35.8105 385.931H36.8336V389H1.02637V385.931H6.65322ZM175.696 361.633C167.256 352.937 160.606 342.962 156.003 331.964C151.143 320.71 148.841 308.434 148.841 296.157C148.841 283.624 151.143 271.348 156.003 260.094C160.606 249.096 167.256 239.121 175.696 230.681C184.137 221.985 193.856 215.335 204.854 210.475C216.363 205.616 228.384 203.058 240.661 203.058H242.707C255.24 203.058 267.261 205.616 278.77 210.475C289.768 215.335 299.487 221.985 307.927 230.681C316.368 239.121 323.018 249.096 327.621 260.094C332.481 271.348 334.783 283.624 334.783 296.157C334.783 308.434 332.481 320.71 327.621 331.964C323.018 342.962 316.368 352.937 307.927 361.633C299.487 370.073 289.768 376.723 278.77 381.583C267.261 386.442 255.24 389 242.707 389H240.917C228.384 389 216.363 386.442 204.854 381.583C193.856 376.723 184.137 370.073 175.696 361.633ZM242.707 206.383H240.917C221.223 206.639 202.808 216.102 188.741 232.727C174.929 249.863 167.256 272.115 167.256 296.157C167.256 319.943 174.929 342.451 188.741 359.331C202.808 376.212 221.223 385.419 240.917 385.931H242.707C262.401 385.419 280.816 376.212 294.628 359.331C308.695 342.451 316.368 319.943 316.368 296.157C316.368 272.115 308.695 249.863 294.628 232.727C280.816 216.102 262.401 206.639 242.707 206.383ZM340.366 206.383V203.058H363.64L461.599 381.071V233.75C461.599 219.171 450.345 207.15 435.766 206.383L434.743 206.127V203.058H470.551V206.383H464.924V389H447.276L349.318 210.987V358.308C349.318 372.887 360.571 384.908 375.15 385.931H376.173V389H340.366V385.931H345.993V206.383H340.366ZM503.047 361.633C494.607 352.937 487.957 342.962 483.353 331.964C478.493 320.71 476.191 308.434 476.191 296.157C476.191 283.624 478.493 271.348 483.353 260.094C487.957 249.096 494.607 239.121 503.047 230.681C511.487 221.985 521.206 215.335 532.204 210.475C543.714 205.616 555.735 203.058 568.011 203.058H570.057C582.59 203.058 594.611 205.616 606.12 210.475C617.118 215.335 626.837 221.985 635.278 230.681C643.718 239.121 650.368 249.096 654.972 260.094C659.831 271.348 662.133 283.624 662.133 296.157C662.133 308.434 659.831 320.71 654.972 331.964C650.368 342.962 643.718 352.937 635.278 361.633C626.837 370.073 617.118 376.723 606.12 381.583C594.611 386.442 582.59 389 570.057 389H568.267C555.735 389 543.714 386.442 532.204 381.583C521.206 376.723 511.487 370.073 503.047 361.633ZM570.057 206.383H568.267C548.573 206.639 530.158 216.102 516.091 232.727C502.28 249.863 494.607 272.115 494.607 296.157C494.607 319.943 502.28 342.451 516.091 359.331C530.158 376.212 548.573 385.419 568.267 385.931H570.057C589.751 385.419 608.167 376.212 621.978 359.331C636.045 342.451 643.718 319.943 643.718 296.157C643.718 272.115 636.045 249.863 621.978 232.727C608.167 216.102 589.751 206.639 570.057 206.383ZM735.494 328.128H688.433L675.645 385.931H688.433V389H658.764V385.931H659.787C666.949 385.931 673.087 381.071 674.878 374.421L706.081 233.494L696.873 203.058H715.544L771.813 385.931H777.951V389H754.165L735.494 328.128ZM689.2 324.803H734.471L708.127 239.633L689.2 324.803ZM804.237 206.383H798.61V357.285C798.866 365.214 802.191 373.142 808.329 378.514C813.445 383.117 820.095 385.675 827 385.931C837.487 385.675 847.717 381.583 855.646 374.421C865.11 365.981 870.481 353.96 870.481 341.427V233.75C870.481 219.171 858.971 207.15 844.648 206.383L843.369 206.127V203.058H879.432V206.383H873.806V341.427C873.806 354.983 867.923 368.027 857.948 376.979C849.508 384.652 838.51 389 827 389C815.491 389 804.493 384.652 795.797 376.979C785.822 368.027 780.195 354.983 780.195 341.427V206.383H774.568V203.058H804.237V206.383ZM956.788 301.272L984.666 385.931H990.804V389H960.88V385.931H965.995L937.094 298.459C921.748 299.226 909.215 312.014 909.215 327.872L908.959 385.931H914.586V389H884.917V385.931H890.544V206.383H884.917V203.058H938.372C949.882 203.058 960.88 207.406 969.32 215.079C979.551 224.287 985.178 237.075 985.178 250.631C985.178 264.186 979.551 277.23 969.32 286.182C962.926 292.065 954.741 296.157 946.045 297.691L956.788 301.272ZM908.959 314.061C914.075 302.807 925.584 295.134 938.372 295.134C945.022 295.134 951.672 292.576 957.043 287.717C962.926 282.346 966.507 274.673 966.762 266.488V235.029C966.507 226.844 962.926 219.171 957.043 213.545C951.928 208.941 945.278 206.383 938.372 206.383H908.959V314.061ZM1064.29 328.128H1017.23L1004.44 385.931H1017.23V389H987.563V385.931H988.586C995.748 385.931 1001.89 381.071 1003.68 374.421L1034.88 233.494L1025.67 203.058H1044.34L1100.61 385.931H1106.75V389H1082.96L1064.29 328.128ZM1018 324.803H1063.27L1036.93 239.633L1018 324.803ZM1174.47 385.931C1189.05 384.908 1200.3 372.887 1200.3 358.308V357.285H1203.63V389H1103.37V385.931H1108.99V206.383H1103.37V203.058H1127.41V385.931H1174.47Z"
     stroke="#F7931F" stroke-width="2" mask="url(#path-1-outside-1_731_79)" />
   </svg>