<svg xmlns="http://www.w3.org/2000/svg" width="46" height="47" viewBox="0 0 46 47" fill="none" class="">
     <mask id="path-1-outside-1_683_894" maskUnits="userSpaceOnUse" x="-1.26222e-07" y="-0.273435" width="46"
      height="47" fill="black">
      <rect fill="white" x="-1.26222e-07" y="-0.273435" width="46" height="47" />
      <path fill-rule="evenodd" clip-rule="evenodd"
       d="M23.4541 45.7077C23.4541 45.6863 23.6275 45.1553 23.8392 44.5277C24.5724 42.3543 24.3613 41.1284 22.763 38.2823C21.8746 36.7001 21.6737 36.268 21.4714 35.5035C21.2469 34.6553 21.2324 34.653 20.6292 35.362C19.97 36.1368 19.6849 36.7506 19.2653 38.2991C18.3486 41.6816 17.7283 42.6074 15.5952 43.7764C14.7707 44.2282 14.7737 44.1548 15.6189 43.2137C17.1809 41.4745 17.4852 40.2506 17.1323 37.1272C16.8887 34.9711 16.8725 34.6495 16.9683 33.8504C17.0777 32.9384 17.1155 32.9696 16.3621 33.3494C15.2314 33.9197 15.006 34.1356 13.5236 36.0687C11.795 38.3228 10.4644 39.1167 8.14977 39.2753L7.50887 39.3192L8.52352 38.8251C10.9096 37.6638 11.4622 36.8371 12.6408 32.6663C12.8346 31.9812 13.0723 31.365 13.364 30.7916C13.8751 29.7879 13.886 29.8066 12.864 29.9326C11.8075 30.0628 11.3294 30.248 9.80835 31.1167C7.12248 32.6506 5.67351 32.9626 3.77702 32.4154C2.54709 32.0607 2.54539 32.041 3.73928 31.9682C6.38158 31.8073 7.12851 31.3114 9.85929 27.9064C10.3717 27.2674 10.9226 26.6799 11.3401 26.3274C12.0948 25.69 12.0984 25.7221 11.2407 25.4345C10.4683 25.1753 9.07028 25.1443 7.65961 25.3547C5.44522 25.6851 3.93022 25.5339 2.72142 24.8622C1.94656 24.4317 0.590039 23.2616 1.11944 23.4804C4.11454 24.7184 5.22731 24.584 8.85916 22.5451C10.0014 21.9039 10.6223 21.6301 11.3726 21.4367C12.0284 21.2678 12.0248 21.2857 11.496 20.8012C10.5826 19.9639 10.2395 19.7955 8.48296 19.3225C5.0592 18.4007 3.9304 17.615 2.80538 15.3708C2.4954 14.7523 2.54011 14.7686 3.47534 15.6136C5.26372 17.2292 6.44346 17.4985 9.97589 17.0974C11.3977 16.936 12.5852 16.9032 13.2198 17.0079C13.6551 17.0798 13.6577 17.0643 13.3251 16.3706C12.8518 15.3833 12.5461 15.0596 10.6753 13.5633C8.46353 11.7944 7.71716 10.6604 7.47132 8.69549C7.31756 7.46543 7.37076 7.4696 7.99676 8.73636C9.03576 10.8389 9.86118 11.4097 13.3517 12.4392C14.9728 12.9173 15.7199 13.2116 16.424 13.6492L16.7444 13.8484L16.7417 13.2581C16.7364 12.1018 16.5153 11.4587 15.5571 9.81505C14.2187 7.51917 13.734 5.69178 14.0973 4.3132C14.312 3.4994 14.5858 2.64985 14.6335 2.64985C14.662 2.64985 14.7056 3.16904 14.7303 3.80364C14.8214 6.14512 15.502 7.27244 18.026 9.26426C19.4049 10.3522 19.8604 10.7654 20.3692 11.39C20.9415 12.0924 20.9143 12.0994 21.208 11.1747C21.5124 10.216 21.5241 9.52839 21.269 7.56439C20.8973 4.70221 21.2171 3.21161 22.5553 1.56965C23.2423 0.726905 23.2481 0.742415 22.7681 2.13425C22.0116 4.32852 22.2297 5.5336 23.932 8.56948C24.7305 9.99328 24.8427 10.2341 25.111 11.1002C25.3953 12.0178 25.3584 12.0061 25.9342 11.3637C26.6189 10.6001 26.8553 10.0816 27.3764 8.2007C28.2712 4.96994 29.0572 3.8553 31.2067 2.76867C31.8217 2.4578 31.7914 2.5401 30.9273 3.52437C29.3083 5.3688 29.1055 6.37369 29.5624 10.2862C29.7204 11.6381 29.727 12.3009 29.5915 13.2541L29.5404 13.6136L29.8711 13.4969C30.8554 13.1495 31.6291 12.4835 32.7596 11.0099C34.8165 8.32918 35.8926 7.64878 38.5138 7.37234C39.1643 7.30366 39.1268 7.34075 37.9461 7.93392C35.6779 9.07353 35.1849 9.7965 34.0746 13.6131C33.7277 14.8049 33.529 15.3426 33.2139 15.9407C32.7387 16.8433 32.7349 16.8359 33.6182 16.7564C34.7425 16.6554 35.1238 16.5076 36.9494 15.4654C39.5441 13.9843 40.9693 13.7005 42.9073 14.2793C43.8431 14.5589 44.0363 14.6651 43.6216 14.6721C40.5482 14.7241 39.5898 15.2336 37.3931 17.9831C36.1438 19.5471 35.6413 20.0876 35.0436 20.5117C34.5027 20.8954 34.5135 20.9251 35.2959 21.2074C36.0898 21.4939 37.5025 21.5249 39.0604 21.2901C41.6902 20.8939 43.2846 21.2407 44.9696 22.5752C45.8917 23.3055 45.8675 23.3201 44.5498 22.8284L43.4707 22.4257L42.5283 22.4257C41.0585 22.4257 40.4122 22.6448 38.118 23.9212C36.4192 24.8663 36.3034 24.9208 35.51 25.1469C35.1198 25.258 34.7727 25.3749 34.7386 25.4067C34.6535 25.4858 35.5645 26.2913 36.1224 26.6302C36.5962 26.9179 36.7707 26.9775 38.8342 27.5565C41.5208 28.3102 42.6352 29.1226 43.6969 31.1012C44.1652 31.974 44.1319 31.9727 43.1407 31.0802C41.2836 29.4081 40.2218 29.1599 36.6854 29.5701C35.5515 29.7018 35.0214 29.7271 34.141 29.6921C33.4332 29.6641 33.029 29.6751 33.029 29.7222C33.029 30.2776 34.0846 31.648 35.1593 32.4883C38.3308 34.9677 39.0068 35.9726 39.17 38.4503L39.2149 39.1309L38.7015 38.1008C37.5486 35.7874 36.7331 35.2112 33.1986 34.2129C32.0457 33.8873 31.5067 33.6903 30.8105 33.3411C29.789 32.8285 29.77 32.8323 29.8358 33.5354C29.9551 34.8091 30.1711 35.3726 31.2535 37.2343C32.7058 39.7316 32.9279 41.4389 32.1002 43.7431L31.9915 44.0454L31.9483 43.7807C31.9248 43.6352 31.8844 43.0909 31.8589 42.5711C31.7565 40.4819 31.055 39.4145 28.3546 37.238C27.1169 36.2405 26.6073 35.7582 26.0527 35.06C25.7 34.616 25.6568 34.6493 25.3718 35.5864C25.0786 36.5503 25.0654 37.1665 25.3018 38.8662C25.6178 41.1392 25.4884 42.6786 24.8801 43.8823C24.5924 44.4519 23.4541 45.9088 23.4541 45.7077Z" />
     </mask>
     <path fill-rule="evenodd" clip-rule="evenodd"
      d="M23.4541 45.7077C23.4541 45.6863 23.6275 45.1553 23.8392 44.5277C24.5724 42.3543 24.3613 41.1284 22.763 38.2823C21.8746 36.7001 21.6737 36.268 21.4714 35.5035C21.2469 34.6553 21.2324 34.653 20.6292 35.362C19.97 36.1368 19.6849 36.7506 19.2653 38.2991C18.3486 41.6816 17.7283 42.6074 15.5952 43.7764C14.7707 44.2282 14.7737 44.1548 15.6189 43.2137C17.1809 41.4745 17.4852 40.2506 17.1323 37.1272C16.8887 34.9711 16.8725 34.6495 16.9683 33.8504C17.0777 32.9384 17.1155 32.9696 16.3621 33.3494C15.2314 33.9197 15.006 34.1356 13.5236 36.0687C11.795 38.3228 10.4644 39.1167 8.14977 39.2753L7.50887 39.3192L8.52352 38.8251C10.9096 37.6638 11.4622 36.8371 12.6408 32.6663C12.8346 31.9812 13.0723 31.365 13.364 30.7916C13.8751 29.7879 13.886 29.8066 12.864 29.9326C11.8075 30.0628 11.3294 30.248 9.80835 31.1167C7.12248 32.6506 5.67351 32.9626 3.77702 32.4154C2.54709 32.0607 2.54539 32.041 3.73928 31.9682C6.38158 31.8073 7.12851 31.3114 9.85929 27.9064C10.3717 27.2674 10.9226 26.6799 11.3401 26.3274C12.0948 25.69 12.0984 25.7221 11.2407 25.4345C10.4683 25.1753 9.07028 25.1443 7.65961 25.3547C5.44522 25.6851 3.93022 25.5339 2.72142 24.8622C1.94656 24.4317 0.590039 23.2616 1.11944 23.4804C4.11454 24.7184 5.22731 24.584 8.85916 22.5451C10.0014 21.9039 10.6223 21.6301 11.3726 21.4367C12.0284 21.2678 12.0248 21.2857 11.496 20.8012C10.5826 19.9639 10.2395 19.7955 8.48296 19.3225C5.0592 18.4007 3.9304 17.615 2.80538 15.3708C2.4954 14.7523 2.54011 14.7686 3.47534 15.6136C5.26372 17.2292 6.44346 17.4985 9.97589 17.0974C11.3977 16.936 12.5852 16.9032 13.2198 17.0079C13.6551 17.0798 13.6577 17.0643 13.3251 16.3706C12.8518 15.3833 12.5461 15.0596 10.6753 13.5633C8.46353 11.7944 7.71716 10.6604 7.47132 8.69549C7.31756 7.46543 7.37076 7.4696 7.99676 8.73636C9.03576 10.8389 9.86118 11.4097 13.3517 12.4392C14.9728 12.9173 15.7199 13.2116 16.424 13.6492L16.7444 13.8484L16.7417 13.2581C16.7364 12.1018 16.5153 11.4587 15.5571 9.81505C14.2187 7.51917 13.734 5.69178 14.0973 4.3132C14.312 3.4994 14.5858 2.64985 14.6335 2.64985C14.662 2.64985 14.7056 3.16904 14.7303 3.80364C14.8214 6.14512 15.502 7.27244 18.026 9.26426C19.4049 10.3522 19.8604 10.7654 20.3692 11.39C20.9415 12.0924 20.9143 12.0994 21.208 11.1747C21.5124 10.216 21.5241 9.52839 21.269 7.56439C20.8973 4.70221 21.2171 3.21161 22.5553 1.56965C23.2423 0.726905 23.2481 0.742415 22.7681 2.13425C22.0116 4.32852 22.2297 5.5336 23.932 8.56948C24.7305 9.99328 24.8427 10.2341 25.111 11.1002C25.3953 12.0178 25.3584 12.0061 25.9342 11.3637C26.6189 10.6001 26.8553 10.0816 27.3764 8.2007C28.2712 4.96994 29.0572 3.8553 31.2067 2.76867C31.8217 2.4578 31.7914 2.5401 30.9273 3.52437C29.3083 5.3688 29.1055 6.37369 29.5624 10.2862C29.7204 11.6381 29.727 12.3009 29.5915 13.2541L29.5404 13.6136L29.8711 13.4969C30.8554 13.1495 31.6291 12.4835 32.7596 11.0099C34.8165 8.32918 35.8926 7.64878 38.5138 7.37234C39.1643 7.30366 39.1268 7.34075 37.9461 7.93392C35.6779 9.07353 35.1849 9.7965 34.0746 13.6131C33.7277 14.8049 33.529 15.3426 33.2139 15.9407C32.7387 16.8433 32.7349 16.8359 33.6182 16.7564C34.7425 16.6554 35.1238 16.5076 36.9494 15.4654C39.5441 13.9843 40.9693 13.7005 42.9073 14.2793C43.8431 14.5589 44.0363 14.6651 43.6216 14.6721C40.5482 14.7241 39.5898 15.2336 37.3931 17.9831C36.1438 19.5471 35.6413 20.0876 35.0436 20.5117C34.5027 20.8954 34.5135 20.9251 35.2959 21.2074C36.0898 21.4939 37.5025 21.5249 39.0604 21.2901C41.6902 20.8939 43.2846 21.2407 44.9696 22.5752C45.8917 23.3055 45.8675 23.3201 44.5498 22.8284L43.4707 22.4257L42.5283 22.4257C41.0585 22.4257 40.4122 22.6448 38.118 23.9212C36.4192 24.8663 36.3034 24.9208 35.51 25.1469C35.1198 25.258 34.7727 25.3749 34.7386 25.4067C34.6535 25.4858 35.5645 26.2913 36.1224 26.6302C36.5962 26.9179 36.7707 26.9775 38.8342 27.5565C41.5208 28.3102 42.6352 29.1226 43.6969 31.1012C44.1652 31.974 44.1319 31.9727 43.1407 31.0802C41.2836 29.4081 40.2218 29.1599 36.6854 29.5701C35.5515 29.7018 35.0214 29.7271 34.141 29.6921C33.4332 29.6641 33.029 29.6751 33.029 29.7222C33.029 30.2776 34.0846 31.648 35.1593 32.4883C38.3308 34.9677 39.0068 35.9726 39.17 38.4503L39.2149 39.1309L38.7015 38.1008C37.5486 35.7874 36.7331 35.2112 33.1986 34.2129C32.0457 33.8873 31.5067 33.6903 30.8105 33.3411C29.789 32.8285 29.77 32.8323 29.8358 33.5354C29.9551 34.8091 30.1711 35.3726 31.2535 37.2343C32.7058 39.7316 32.9279 41.4389 32.1002 43.7431L31.9915 44.0454L31.9483 43.7807C31.9248 43.6352 31.8844 43.0909 31.8589 42.5711C31.7565 40.4819 31.055 39.4145 28.3546 37.238C27.1169 36.2405 26.6073 35.7582 26.0527 35.06C25.7 34.616 25.6568 34.6493 25.3718 35.5864C25.0786 36.5503 25.0654 37.1665 25.3018 38.8662C25.6178 41.1392 25.4884 42.6786 24.8801 43.8823C24.5924 44.4519 23.4541 45.9088 23.4541 45.7077Z"
      fill="#F7931F" />
     <path fill-rule="evenodd" clip-rule="evenodd"
      d="M23.4541 45.7077C23.4541 45.6863 23.6275 45.1553 23.8392 44.5277C24.5724 42.3543 24.3613 41.1284 22.763 38.2823C21.8746 36.7001 21.6737 36.268 21.4714 35.5035C21.2469 34.6553 21.2324 34.653 20.6292 35.362C19.97 36.1368 19.6849 36.7506 19.2653 38.2991C18.3486 41.6816 17.7283 42.6074 15.5952 43.7764C14.7707 44.2282 14.7737 44.1548 15.6189 43.2137C17.1809 41.4745 17.4852 40.2506 17.1323 37.1272C16.8887 34.9711 16.8725 34.6495 16.9683 33.8504C17.0777 32.9384 17.1155 32.9696 16.3621 33.3494C15.2314 33.9197 15.006 34.1356 13.5236 36.0687C11.795 38.3228 10.4644 39.1167 8.14977 39.2753L7.50887 39.3192L8.52352 38.8251C10.9096 37.6638 11.4622 36.8371 12.6408 32.6663C12.8346 31.9812 13.0723 31.365 13.364 30.7916C13.8751 29.7879 13.886 29.8066 12.864 29.9326C11.8075 30.0628 11.3294 30.248 9.80835 31.1167C7.12248 32.6506 5.67351 32.9626 3.77702 32.4154C2.54709 32.0607 2.54539 32.041 3.73928 31.9682C6.38158 31.8073 7.12851 31.3114 9.85929 27.9064C10.3717 27.2674 10.9226 26.6799 11.3401 26.3274C12.0948 25.69 12.0984 25.7221 11.2407 25.4345C10.4683 25.1753 9.07028 25.1443 7.65961 25.3547C5.44522 25.6851 3.93022 25.5339 2.72142 24.8622C1.94656 24.4317 0.590039 23.2616 1.11944 23.4804C4.11454 24.7184 5.22731 24.584 8.85916 22.5451C10.0014 21.9039 10.6223 21.6301 11.3726 21.4367C12.0284 21.2678 12.0248 21.2857 11.496 20.8012C10.5826 19.9639 10.2395 19.7955 8.48296 19.3225C5.0592 18.4007 3.9304 17.615 2.80538 15.3708C2.4954 14.7523 2.54011 14.7686 3.47534 15.6136C5.26372 17.2292 6.44346 17.4985 9.97589 17.0974C11.3977 16.936 12.5852 16.9032 13.2198 17.0079C13.6551 17.0798 13.6577 17.0643 13.3251 16.3706C12.8518 15.3833 12.5461 15.0596 10.6753 13.5633C8.46353 11.7944 7.71716 10.6604 7.47132 8.69549C7.31756 7.46543 7.37076 7.4696 7.99676 8.73636C9.03576 10.8389 9.86118 11.4097 13.3517 12.4392C14.9728 12.9173 15.7199 13.2116 16.424 13.6492L16.7444 13.8484L16.7417 13.2581C16.7364 12.1018 16.5153 11.4587 15.5571 9.81505C14.2187 7.51917 13.734 5.69178 14.0973 4.3132C14.312 3.4994 14.5858 2.64985 14.6335 2.64985C14.662 2.64985 14.7056 3.16904 14.7303 3.80364C14.8214 6.14512 15.502 7.27244 18.026 9.26426C19.4049 10.3522 19.8604 10.7654 20.3692 11.39C20.9415 12.0924 20.9143 12.0994 21.208 11.1747C21.5124 10.216 21.5241 9.52839 21.269 7.56439C20.8973 4.70221 21.2171 3.21161 22.5553 1.56965C23.2423 0.726905 23.2481 0.742415 22.7681 2.13425C22.0116 4.32852 22.2297 5.5336 23.932 8.56948C24.7305 9.99328 24.8427 10.2341 25.111 11.1002C25.3953 12.0178 25.3584 12.0061 25.9342 11.3637C26.6189 10.6001 26.8553 10.0816 27.3764 8.2007C28.2712 4.96994 29.0572 3.8553 31.2067 2.76867C31.8217 2.4578 31.7914 2.5401 30.9273 3.52437C29.3083 5.3688 29.1055 6.37369 29.5624 10.2862C29.7204 11.6381 29.727 12.3009 29.5915 13.2541L29.5404 13.6136L29.8711 13.4969C30.8554 13.1495 31.6291 12.4835 32.7596 11.0099C34.8165 8.32918 35.8926 7.64878 38.5138 7.37234C39.1643 7.30366 39.1268 7.34075 37.9461 7.93392C35.6779 9.07353 35.1849 9.7965 34.0746 13.6131C33.7277 14.8049 33.529 15.3426 33.2139 15.9407C32.7387 16.8433 32.7349 16.8359 33.6182 16.7564C34.7425 16.6554 35.1238 16.5076 36.9494 15.4654C39.5441 13.9843 40.9693 13.7005 42.9073 14.2793C43.8431 14.5589 44.0363 14.6651 43.6216 14.6721C40.5482 14.7241 39.5898 15.2336 37.3931 17.9831C36.1438 19.5471 35.6413 20.0876 35.0436 20.5117C34.5027 20.8954 34.5135 20.9251 35.2959 21.2074C36.0898 21.4939 37.5025 21.5249 39.0604 21.2901C41.6902 20.8939 43.2846 21.2407 44.9696 22.5752C45.8917 23.3055 45.8675 23.3201 44.5498 22.8284L43.4707 22.4257L42.5283 22.4257C41.0585 22.4257 40.4122 22.6448 38.118 23.9212C36.4192 24.8663 36.3034 24.9208 35.51 25.1469C35.1198 25.258 34.7727 25.3749 34.7386 25.4067C34.6535 25.4858 35.5645 26.2913 36.1224 26.6302C36.5962 26.9179 36.7707 26.9775 38.8342 27.5565C41.5208 28.3102 42.6352 29.1226 43.6969 31.1012C44.1652 31.974 44.1319 31.9727 43.1407 31.0802C41.2836 29.4081 40.2218 29.1599 36.6854 29.5701C35.5515 29.7018 35.0214 29.7271 34.141 29.6921C33.4332 29.6641 33.029 29.6751 33.029 29.7222C33.029 30.2776 34.0846 31.648 35.1593 32.4883C38.3308 34.9677 39.0068 35.9726 39.17 38.4503L39.2149 39.1309L38.7015 38.1008C37.5486 35.7874 36.7331 35.2112 33.1986 34.2129C32.0457 33.8873 31.5067 33.6903 30.8105 33.3411C29.789 32.8285 29.77 32.8323 29.8358 33.5354C29.9551 34.8091 30.1711 35.3726 31.2535 37.2343C32.7058 39.7316 32.9279 41.4389 32.1002 43.7431L31.9915 44.0454L31.9483 43.7807C31.9248 43.6352 31.8844 43.0909 31.8589 42.5711C31.7565 40.4819 31.055 39.4145 28.3546 37.238C27.1169 36.2405 26.6073 35.7582 26.0527 35.06C25.7 34.616 25.6568 34.6493 25.3718 35.5864C25.0786 36.5503 25.0654 37.1665 25.3018 38.8662C25.6178 41.1392 25.4884 42.6786 24.8801 43.8823C24.5924 44.4519 23.4541 45.9088 23.4541 45.7077Z"
      stroke="#F7931F" stroke-width="0.740553" stroke-linejoin="round" mask="url(#path-1-outside-1_683_894)" />
     <circle cx="23.7173" cy="23.3259" r="9.00854" fill="#0303BE" />
    </svg>